<svg width="96" height="96" viewBox="-4.2 -11.8 96 96" xmlns="http://www.w3.org/2000/svg"><g id="svgGroup" stroke-linecap="round" fill-rule="evenodd" font-size="9pt" stroke="#000000" stroke-width="0.5mm" fill="#000000" style="stroke:#000000;stroke-width:0.5mm;fill:#000000"><path d="M 39.7 1.2 L 39.7 9.4 Q 38.9 9.3 37.9 9.25 Q 36.9 9.2 36 9.2 Q 25.1 9.2 18.05 15.85 Q 11 22.5 9.4 34.1 Q 12.2 31.4 16.6 29.15 Q 21 26.9 26.6 26.9 Q 32.2 26.9 36.6 29.5 Q 41 32.1 43.55 36.75 Q 46.1 41.4 46.1 47.8 Q 46.1 55.1 43.15 60.65 Q 40.2 66.2 35.1 69.3 Q 30 72.4 23.4 72.4 Q 17.1 72.4 11.75 69.25 Q 6.4 66.1 3.2 59.5 Q 0 52.9 0 42.8 Q 0 34.3 2.25 26.75 Q 4.5 19.2 9.05 13.4 Q 13.6 7.6 20.3 4.3 Q 27 1 35.9 1 Q 36.8 1 37.85 1.05 Q 38.9 1.1 39.7 1.2 Z M 9.2 42.1 L 9.2 44.3 Q 9.4 53.7 13.55 58.95 Q 17.7 64.2 23.8 64.2 Q 29.8 64.2 33.45 59.8 Q 37.1 55.4 37.1 48.9 Q 37.1 42.4 33.6 38.4 Q 30.1 34.4 24.3 34.4 Q 20 34.4 16.1 36.5 Q 12.2 38.6 9.2 42.1 Z" id="0" vector-effect="non-scaling-stroke"/><g transform="translate(-15, 0)"><path d="M 59.4 66.4 L 63.5 58.9 Q 66.3 61 70 62.6 Q 73.7 64.2 79 64.2 Q 85.6 64.2 89.45 60.7 Q 93.3 57.2 93.3 52 Q 93.3 48.3 91.3 45.25 Q 89.3 42.2 85.15 40.3 Q 81 38.4 74.4 38.4 L 68.8 38.4 L 68.8 31.1 L 74 31.1 Q 79.9 31.1 83.75 29.3 Q 87.6 27.5 89.5 24.6 Q 91.4 21.7 91.4 18.5 Q 91.4 13.8 87.85 10.9 Q 84.3 8 79.1 8 Q 74.4 8 70.75 9.55 Q 67.1 11.1 64.8 13 L 61.1 5.9 Q 64.1 3.9 68.8 1.95 Q 73.5 0 79.8 0 Q 86.4 0 91 2.4 Q 95.6 4.8 98.05 8.75 Q 100.5 12.7 100.5 17.3 Q 100.5 23.2 97.55 27.2 Q 94.6 31.2 89.2 33.8 Q 95.5 36.2 99.05 40.85 Q 102.6 45.5 102.6 51.7 Q 102.6 56.9 100.05 61.65 Q 97.5 66.4 92.25 69.4 Q 87 72.4 78.9 72.4 Q 72.4 72.4 67.6 70.65 Q 62.8 68.9 59.4 66.4 Z" id="1" vector-effect="non-scaling-stroke"/></g></g></svg>
